<svg width="32" height="32" viewBox="0 0 32 32" fill="none" xmlns="http://www.w3.org/2000/svg">
<path d="M2.44727 19.6883V4.74902H18.9073L19.2652 13.5158L29.5527 13.9631V27.3816L12.7348 28.0078V19.6883H2.44727Z" fill="#80CAFF"/>
<path fill-rule="evenodd" clip-rule="evenodd" d="M2 4.74904C2 4.50201 2.20026 4.30176 2.44728 4.30176H18.9073C19.1473 4.30176 19.3445 4.49107 19.3543 4.7308L19.6953 13.0868L29.5721 13.5162C29.8114 13.5266 30 13.7236 30 13.9631V27.3816C30 27.6222 29.8097 27.8197 29.5694 27.8286L12.7515 28.4548C12.63 28.4593 12.512 28.4142 12.4245 28.3299C12.337 28.2456 12.2875 28.1293 12.2875 28.0078V20.1356H2.44728C2.20026 20.1356 2 19.9354 2 19.6883V4.74904ZM2.89457 5.19633V19.2411H12.7348C12.9819 19.2411 13.1821 19.4413 13.1821 19.6883V27.5436L29.1054 26.9507V14.3914L19.2457 13.9627C19.0135 13.9526 18.8277 13.7663 18.8183 13.5341L18.4779 5.19633H2.89457ZM5.49744 10.3739C5.65176 10.181 5.93323 10.1498 6.12613 10.3041C6.34662 10.4805 6.45806 10.5553 6.54719 10.5994C6.63017 10.6406 6.71127 10.6644 6.90071 10.707C7.25667 10.7871 7.59261 10.8027 7.91382 10.725C8.23384 10.6475 8.40622 10.5508 8.69682 10.3879C8.74857 10.3589 8.80408 10.3278 8.86483 10.2943C9.08118 10.1751 9.35322 10.2538 9.47246 10.4701C9.59171 10.6865 9.51299 10.9585 9.29665 11.0777C9.24579 11.1058 9.19627 11.1337 9.14724 11.1614L9.14709 11.1614L9.147 11.1615C8.84994 11.329 8.5711 11.4862 8.12431 11.5944C7.63293 11.7134 7.15202 11.6805 6.70434 11.5797C6.51015 11.536 6.33697 11.4937 6.14979 11.4009C5.96874 11.3111 5.7941 11.1841 5.5673 11.0026C5.3744 10.8483 5.34313 10.5668 5.49744 10.3739ZM25.6054 20.323C25.7983 20.1686 26.0797 20.1999 26.2341 20.3928C26.3884 20.5857 26.3571 20.8672 26.1642 21.0215C25.9374 21.2029 25.7628 21.33 25.5817 21.4198C25.3945 21.5126 25.2214 21.5549 25.0272 21.5986C24.5795 21.6993 24.0986 21.7323 23.6072 21.6133C23.1604 21.5051 22.8816 21.3479 22.5845 21.1804L22.5844 21.1803C22.5353 21.1526 22.4858 21.1247 22.4349 21.0966C22.2185 20.9774 22.1398 20.7053 22.259 20.489C22.3783 20.2726 22.6503 20.1939 22.8667 20.3132C22.9273 20.3466 22.9826 20.3776 23.0343 20.4066L23.0347 20.4068C23.3253 20.5697 23.4977 20.6664 23.8177 20.7438C24.1389 20.8216 24.4748 20.806 24.8308 20.7259C25.0202 20.6832 25.1013 20.6595 25.1843 20.6183C25.2734 20.5741 25.3849 20.4993 25.6054 20.323ZM5.84653 8.50602C5.84653 8.90126 5.52612 9.22167 5.13088 9.22167C4.73563 9.22167 4.41522 8.90126 4.41522 8.50602C4.41522 8.11077 4.73563 7.79036 5.13088 7.79036C5.52612 7.79036 5.84653 8.11077 5.84653 8.50602ZM8.70882 9.22184C9.10406 9.22184 9.42447 8.90143 9.42447 8.50618C9.42447 8.11094 9.10406 7.79053 8.70882 7.79053C8.31357 7.79053 7.99316 8.11094 7.99316 8.50618C7.99316 8.90143 8.31357 9.22184 8.70882 9.22184ZM23.7379 18.5254C23.7379 18.9206 23.4175 19.241 23.0222 19.241C22.627 19.241 22.3066 18.9206 22.3066 18.5254C22.3066 18.1301 22.627 17.8097 23.0222 17.8097C23.4175 17.8097 23.7379 18.1301 23.7379 18.5254ZM26.6008 19.241C26.9961 19.241 27.3165 18.9206 27.3165 18.5254C27.3165 18.1301 26.9961 17.8097 26.6008 17.8097C26.2056 17.8097 25.8852 18.1301 25.8852 18.5254C25.8852 18.9206 26.2056 19.241 26.6008 19.241Z" fill="#1E293B"/>
</svg>
