<svg width="97" height="114" viewBox="0 0 97 114" fill="none" xmlns="http://www.w3.org/2000/svg">
<path d="M64.5537 8.72156C55.819 8.37218 47.0161 9.36012 38.4855 12.1533C26.3635 16.1225 17.6118 32.359 26.4083 43.5012C27.7012 45.1389 28.964 45.6197 30.962 45.5471C37.4234 45.3121 44.2824 43.2429 50.6286 42.1153C57.7048 40.858 69.3563 40.0451 73.4631 32.48C75.9414 27.9147 74.0896 23.7998 71.2192 20.0068C70.0164 18.4173 67.7681 14.3056 65.7416 14.0672C64.9287 13.9716 64.1809 12.7482 63.5638 12.2853C61.9307 11.0606 60.03 10.5034 58.0201 10.5034C56.2383 10.5034 54.4564 10.5034 52.6745 10.5034" stroke="black" stroke-width="2" stroke-linecap="round"/>
<path d="M38.4194 25.3523C38.4194 30.0446 40.3734 32.887 45.415 33.0738C46.761 33.1236 48.7524 33.3732 49.7047 32.1828C50.4426 31.2604 52.4398 28.7364 53.2684 28.3221" stroke="black" stroke-width="2" stroke-linecap="round"/>
<path d="M53.8623 17.6308H55.0502" stroke="black" stroke-width="2" stroke-linecap="round"/>
<path d="M46.141 17.0368C45.6574 16.4927 45.559 16.1519 44.9531 15.8489" stroke="black" stroke-width="2" stroke-linecap="round"/>
<path d="M51.4865 9.31542C51.4865 7.51975 51.998 3.63159 50.2986 2.78186" stroke="black" stroke-width="2" stroke-linecap="round"/>
<path d="M39.0134 44.3591C39.0134 50.5275 39.5378 56.7659 40.2013 62.9038C40.6079 66.664 40.4067 70.6517 41.0923 74.354C41.6523 77.378 40.8427 80.5915 41.5213 83.5604C42.4543 87.6427 41.2579 91.9615 42.1152 96.0336C42.9332 99.919 43.7651 104.648 43.7651 108.507" stroke="black" stroke-width="2" stroke-linecap="round"/>
<path d="M56.2383 42.5771C56.3816 49.3132 58.928 55.729 59.2081 62.3098C59.4805 68.7106 60.8119 75.3183 61.7159 81.6465C62.3011 85.7432 63.3658 90.4912 63.3658 94.5486C63.3658 97.0086 64.0061 100.475 63.3328 102.831C62.3906 106.129 70.3277 107.319 73.4631 107.319" stroke="black" stroke-width="2" stroke-linecap="round"/>
<path d="M44.953 107.913C41.7557 108.268 37.0535 111.268 34.2617 112.664" stroke="black" stroke-width="2" stroke-linecap="round"/>
<path d="M22.9765 30.6979C20.6076 30.6979 18.4952 31.2919 16.146 31.2919C13.5277 31.2919 11.9544 26.4283 11.4273 24.3954C10.0737 19.1744 10.602 13.7187 10.5034 8.39144C10.4578 5.92854 9.90942 3.51646 9.90942 0.999939" stroke="black" stroke-width="2" stroke-linecap="round"/>
<path d="M75.2449 25.3523C78.6109 25.9935 80.5859 26.5607 83.6923 27.5961C87.6364 28.9108 89.3195 34.4471 90.3578 38.1554C91.3543 41.7143 91.8674 46.5537 91.2488 50.2656C90.7878 53.0318 88.0272 55.3106 87.1241 58.0201" stroke="black" stroke-width="2" stroke-linecap="round"/>
<path d="M78.8088 59.208C79.0162 57.5491 84.7763 55.8058 85.8704 55.3803C88.5183 54.3506 89.7556 55.137 92.0079 55.0503C93.6299 54.9879 95.4397 54.6345 95.4397 57.1622C95.4397 59.0898 96.1667 61.8144 94.2518 62.7718" stroke="black" stroke-width="2" stroke-linecap="round"/>
<path d="M18.2248 8.72145C16.4564 10.4898 14.2976 12.7709 11.9553 13.4401C10.9424 13.7295 6.2093 14.0099 5.28971 13.3411C3.41775 11.9797 1 8.65387 1 6.34561" stroke="black" stroke-width="2" stroke-linecap="round"/>
<path d="M45.2473 16.0497C44.9608 16.0497 44.4039 15.9437 44.1494 16.0851C44.0118 16.1616 43.8611 16.1294 43.7441 16.2465C43.6456 16.3449 43.5493 16.459 43.4411 16.5456C43.2256 16.718 43.3348 17.3191 43.3348 17.5727C43.3348 18.0863 43.8197 18.5314 44.0432 18.9224C44.554 19.8165 46.0016 19.2772 46.4515 18.6155C46.8963 17.9614 46.5507 17.0745 45.814 16.8289" stroke="black" stroke-width="2" stroke-linecap="round"/>
<path d="M55.1638 17.8206C54.3797 17.8206 53.3439 17.824 52.9326 18.5643C52.5743 19.2093 52.7321 20.4681 53.5189 20.7405C54.1034 20.9428 54.5613 21.0789 55.1953 21.0789C55.5096 21.0789 55.7135 21.0832 55.943 20.8664C56.1719 20.6502 56.2002 20.4319 56.3326 20.1935C56.4643 19.9565 56.443 18.9862 56.3641 18.71C56.2897 18.4497 55.9742 18.369 55.8722 18.1393C55.7853 17.944 55.6338 17.7014 55.4472 17.6081" stroke="black" stroke-width="2" stroke-linecap="round"/>
</svg>
