<svg xmlns="http://www.w3.org/2000/svg" version="1.1" xmlns:xlink="http://www.w3.org/1999/xlink" width="32" height="32"><svg width="32" height="32" viewBox="0 0 32 32" fill="none" xmlns="http://www.w3.org/2000/svg">
<path d="M2.44727 19.6883V4.74902H18.9073L19.2652 13.5158L29.5527 13.9631V27.3816L12.7348 28.0078V19.6883H2.44727Z" fill="#80CAFF"></path>
<path fill-rule="evenodd" clip-rule="evenodd" d="M2 4.74904C2 4.50201 2.20026 4.30176 2.44728 4.30176H18.9073C19.1473 4.30176 19.3445 4.49107 19.3543 4.7308L19.6953 13.0868L29.5721 13.5162C29.8114 13.5266 30 13.7236 30 13.9631V27.3816C30 27.6222 29.8097 27.8197 29.5694 27.8286L12.7515 28.4548C12.63 28.4593 12.512 28.4142 12.4245 28.3299C12.337 28.2456 12.2875 28.1293 12.2875 28.0078V20.1356H2.44728C2.20026 20.1356 2 19.9354 2 19.6883V4.74904ZM2.89457 5.19633V19.2411H12.7348C12.9819 19.2411 13.1821 19.4413 13.1821 19.6883V27.5436L29.1054 26.9507V14.3914L19.2457 13.9627C19.0135 13.9526 18.8277 13.7663 18.8183 13.5341L18.4779 5.19633H2.89457Z" fill="#1E293B"></path>
</svg><style>@media (prefers-color-scheme: light) { :root { filter: none; } }
@media (prefers-color-scheme: dark) { :root { filter: none; } }
</style></svg>